<svg width="100" height="100" viewBox="0 0 100 100" fill="none" xmlns="http://www.w3.org/2000/svg">
<path d="M16.998 18.5742C16.396 18.5772 15.8237 18.8305 15.4277 19.2695C15.0467 19.6915 14.8678 20.233 14.9218 20.748L14.9237 21.9199C14.9957 22.5379 15.3609 23.5742 16.9999 23.5742H20.7343C21.1568 23.6265 24.3071 24.2334 24.9316 30.9551L25.6054 35.7188C25.6057 35.7209 25.607 35.7225 25.6073 35.7246L29.5331 64.3477C29.6001 64.8457 30.0274 65.2129 30.5234 65.2129C30.5414 65.2129 30.56 65.2129 30.578 65.2109L31.7948 65.1445C30.1084 66.5131 28.3547 68.4983 28.3456 70.916C28.3396 72.613 28.3406 73.5296 28.3476 73.6406C28.3826 74.1676 28.8196 74.5742 29.3456 74.5742H29.3534L35.0351 74.5293L35.203 76.3887C34.0599 77.2005 33.3788 78.4647 33.3788 79.8281C33.3788 82.2011 35.411 84.1328 37.912 84.1328C40.412 84.1328 42.4472 82.2031 42.4472 79.8281C42.4472 79.1173 42.2533 78.4273 41.9042 77.8066C42.264 76.3587 42.2524 75.0635 42.2284 74.4707L61.8144 74.3145L61.9804 76.1309C60.7951 76.94 60.0878 78.2302 60.0878 79.6211C60.0878 81.9941 62.121 83.9258 64.621 83.9258C67.122 83.9258 69.1571 81.9951 69.1581 79.6211C69.1581 78.8221 68.9252 78.0422 68.4862 77.3652C68.4755 77.3487 68.4595 77.339 68.4472 77.3242C68.7943 76.2298 68.9116 75.0977 68.9355 74.2578L70.9296 74.2422C71.4826 74.2372 71.9258 73.7864 71.9218 73.2344C71.9168 72.6844 71.4708 72.2422 70.9218 72.2422H70.912L30.3417 72.5664C30.3417 72.1854 30.3426 71.6558 30.3456 70.9238C30.3556 68.1788 34.2306 65.6744 35.7226 64.9414C35.7304 64.9376 35.7345 64.9298 35.7421 64.9258L73.4062 62.8516C73.8582 62.8276 74.236 62.5035 74.33 62.0605L79.8319 35.9961C79.895 35.7021 79.8207 35.3951 79.6327 35.1621C79.4437 34.9281 79.1603 34.7901 78.8593 34.7891L40.9179 34.6328L40.9023 31.4434C41.0683 27.4394 40.1927 24.4076 38.2987 22.4336C36.2077 20.2556 33.6405 20.2412 33.6405 20.2402L21.9218 19.3145V19.0742C21.9218 18.7982 21.6978 18.5742 21.4218 18.5742H16.998ZM16.9999 19.5742H20.9218V22.5352C20.9055 22.5458 20.8959 22.5645 20.8788 22.5742H16.9999C16.1269 22.5742 15.9648 22.2043 15.9218 21.8613L15.9198 20.6992C15.8918 20.4182 15.9808 20.1505 16.1698 19.9395C16.3778 19.7105 16.6809 19.5752 16.9999 19.5742ZM21.9218 21.3223L33.5605 22.2383C33.5785 22.2383 35.3784 22.2813 36.8554 23.8203C38.3564 25.3853 39.0453 27.9222 38.9023 31.4062L38.9179 34.625L27.4648 34.5781L26.9179 30.7227C26.3283 24.3783 23.5397 22.4341 21.9218 21.8359V21.3223ZM27.7421 36.584L39.9179 36.6348H39.9218C39.9299 36.6348 39.9372 36.6311 39.9452 36.6309L77.623 36.7852L76.6855 41.2285L37.4159 41.5742C37.1409 41.5772 36.9198 41.8041 36.9218 42.0801C36.9238 42.3541 37.1478 42.5742 37.4218 42.5742H37.4257L76.4726 42.2305L75.664 46.0625L29.1112 46.5664L27.7421 36.584ZM34.4159 41.5391L30.4159 41.5742C30.1409 41.5772 29.9188 41.8041 29.9218 42.0801C29.9248 42.3541 30.1478 42.5742 30.4218 42.5742H30.4257L34.4257 42.5391C34.7007 42.5361 34.9248 42.3092 34.9218 42.0332C34.9188 41.7592 34.6958 41.5391 34.4218 41.5391H34.4159ZM75.453 47.0645L74.621 51.0039L29.8573 52.0059L29.248 47.5645L75.453 47.0645ZM74.4101 52.0098L72.5331 60.8984L31.3886 63.1621L30.7265 58.3418L62.2109 57.5859C62.4869 57.5789 62.7061 57.3473 62.6991 57.0723C62.6921 56.7963 62.4484 56.5809 62.1874 56.5859L30.5898 57.3457L29.9941 53.002L74.4101 52.0098ZM71.7812 56.3555L65.3144 56.5117C65.0384 56.5187 64.8191 56.7484 64.8261 57.0234C64.8331 57.2954 65.0551 57.5117 65.3261 57.5117H65.3378L71.8046 57.3555C72.0806 57.3485 72.2999 57.1188 72.2929 56.8438C72.2859 56.5677 72.0522 56.3745 71.7812 56.3555ZM67.9355 74.2656C67.8973 75.6353 67.6466 77.8691 66.3808 78.9238C65.0488 80.0348 63.9046 80.2146 63.3476 80.2246L62.8085 74.3066L67.9355 74.2656ZM36.0331 74.5703H41.2441C41.256 75.2222 41.2191 76.4669 40.9159 77.6484C40.8925 77.7019 40.8786 77.7564 40.8749 77.8145C40.6426 78.6421 40.2746 79.4232 39.6737 79.9238C38.3417 81.0348 37.1956 81.2146 36.6386 81.2246L36.0331 74.5703ZM38.4218 75.582C37.5988 75.582 36.9296 76.2512 36.9296 77.0742C36.9296 77.8972 37.5988 78.5664 38.4218 78.5664C39.2448 78.5664 39.912 77.8972 39.912 77.0742C39.912 76.2512 39.2448 75.582 38.4218 75.582ZM65.4218 75.582C64.5988 75.582 63.9296 76.2512 63.9296 77.0742C63.9296 77.8972 64.5988 78.5664 65.4218 78.5664C66.2448 78.5664 66.912 77.8972 66.912 77.0742C66.912 76.2512 66.2448 75.582 65.4218 75.582ZM38.4218 76.5742C38.6978 76.5742 38.9218 76.7982 38.9218 77.0742C38.9218 77.3502 38.6978 77.5742 38.4218 77.5742C38.1458 77.5742 37.9218 77.3502 37.9218 77.0742C37.9218 76.7982 38.1458 76.5742 38.4218 76.5742ZM65.4218 76.5742C65.6978 76.5742 65.9218 76.7982 65.9218 77.0742C65.9218 77.3502 65.6978 77.5742 65.4218 77.5742C65.1458 77.5742 64.9218 77.3502 64.9218 77.0742C64.9218 76.7982 65.1458 76.5742 65.4218 76.5742ZM62.0878 77.3145L62.3984 80.7344C62.4174 80.9524 62.5798 81.1328 62.7948 81.1758C62.8178 81.1808 62.9912 81.2129 63.2812 81.2129C63.9982 81.2129 65.4255 81.0125 67.0175 79.6855C67.4023 79.3649 67.7065 78.9614 67.955 78.5176C68.0889 78.8706 68.164 79.242 68.164 79.6211C68.164 81.4481 66.575 82.9336 64.621 82.9336C62.668 82.9336 61.08 81.4471 61.08 79.6211C61.08 78.7503 61.4503 77.9276 62.0878 77.3145ZM35.3124 77.5859L35.6894 81.7344C35.7084 81.9524 35.8709 82.1328 36.0859 82.1758C36.1089 82.1808 36.2822 82.2129 36.5722 82.2129C37.2892 82.2129 38.7165 82.0125 40.3085 80.6855C40.7728 80.2987 41.1223 79.7936 41.3925 79.2383C41.4303 79.4329 41.455 79.6283 41.455 79.8281C41.455 81.6551 39.867 83.1406 37.914 83.1406C35.96 83.1406 34.371 81.6541 34.371 79.8281C34.371 78.9871 34.7144 78.1912 35.3124 77.5859Z" fill="#363844"/>
</svg>
